<?xml version="1.0" standalone="no"?>
<!DOCTYPE svg PUBLIC "-//W3C//DTD SVG 20010904//EN"
 "http://www.w3.org/TR/2001/REC-SVG-20010904/DTD/svg10.dtd">
<svg version="1.0" xmlns="http://www.w3.org/2000/svg"
 width="1280.000000pt" height="1248.000000pt" viewBox="0 0 1280.000000 1248.000000"
 preserveAspectRatio="xMidYMid meet">

<g transform="translate(0.000000,1248.000000) scale(0.100000,-0.100000)"
fill="#000000" stroke="none">
<path d="M4920 10529 l0 -69 208 -2 207 -3 34 -65 c18 -36 51 -105 73 -154
l39 -89 -16 -81 c-33 -169 -113 -433 -322 -1071 -58 -176 -145 -444 -195 -595
-134 -409 -450 -1354 -454 -1359 -11 -11 -8 -20 -255 799 -44 146 -117 389
-163 540 -46 151 -118 388 -159 525 -42 138 -106 349 -143 470 -36 121 -79
263 -94 315 -16 52 -61 201 -100 330 -111 363 -130 429 -130 440 0 6 80 10
235 10 l235 0 0 60 0 60 -920 0 -920 0 0 -60 0 -60 199 0 198 0 62 -192 c35
-106 121 -373 193 -593 140 -432 290 -895 444 -1370 129 -401 251 -775 334
-1030 71 -217 173 -534 238 -737 29 -92 40 -116 52 -112 8 3 94 30 190 60 96
30 259 82 362 116 l187 62 47 145 c25 80 70 218 99 306 29 88 130 396 224 685
95 289 180 550 191 580 10 30 98 298 195 595 267 814 298 905 305 905 6 0 26
-40 163 -330 73 -154 200 -422 482 -1015 119 -249 239 -504 287 -605 46 -98
49 -106 35 -130 -39 -68 -278 -532 -275 -535 1 -1 44 10 93 27 l90 29 88 169
c48 94 91 170 95 170 4 0 32 -50 62 -111 30 -61 60 -114 67 -116 7 -3 34 3 60
12 27 9 138 47 248 85 110 38 272 94 360 125 88 31 168 59 178 62 9 3 17 9 17
13 0 7 -76 165 -299 624 l-102 209 217 401 c120 221 228 419 240 441 12 22 46
85 77 140 361 656 484 815 674 869 73 21 135 29 288 35 l140 6 3 62 3 63 -733
2 c-403 2 -741 1 -751 -1 -15 -3 -17 -13 -15 -65 l3 -61 235 -5 c272 -6 297
-12 324 -81 20 -50 20 -85 0 -163 -25 -102 -220 -479 -604 -1171 -70 -126
-137 -250 -149 -274 -13 -24 -26 -39 -31 -35 -4 5 -73 144 -153 309 -80 165
-183 379 -230 475 -109 225 -211 436 -303 628 -87 180 -93 220 -45 274 l29 33
169 5 168 5 3 63 3 62 -928 1 c-510 0 -936 2 -945 4 -16 3 -18 -5 -18 -66z"/>
<path d="M11417 9114 c-4 -4 -91 -10 -194 -15 -251 -10 -371 -43 -622 -169
-67 -33 -82 -37 -117 -31 -51 10 -64 18 -64 40 0 10 -12 24 -26 31 -23 13 -30
12 -68 -8 -33 -18 -47 -21 -71 -13 -17 5 -97 24 -178 42 -134 29 -153 31 -200
20 -65 -15 -157 -60 -171 -84 -14 -23 -20 -20 224 -123 113 -48 209 -90 213
-94 5 -4 -119 -74 -274 -156 -317 -166 -278 -156 -476 -124 -215 35 -255 36
-301 10 -79 -45 -67 -63 106 -149 79 -39 102 -56 102 -71 0 -32 38 -40 132
-30 267 29 595 128 1178 355 52 20 165 64 250 97 484 188 770 336 770 399 0
55 -42 79 -138 79 -38 0 -72 -3 -75 -6z"/>
<path d="M9140 8144 c-174 -73 -762 -305 -975 -384 -677 -253 -1031 -376
-2150 -743 -143 -47 -370 -124 -505 -172 -1574 -554 -2215 -740 -2905 -842
-87 -12 -182 -17 -345 -17 -199 0 -235 2 -312 22 -157 39 -275 108 -314 183
-53 104 29 246 233 405 189 148 428 287 1020 594 205 107 371 195 369 197 -3
3 -269 -107 -461 -190 -425 -184 -1104 -528 -1380 -699 -284 -175 -477 -369
-525 -526 -59 -189 13 -353 192 -437 441 -207 1104 -177 2158 97 712 185 1639
500 2655 903 541 214 1090 468 1905 878 434 219 1005 513 1025 527 6 4 66 38
135 75 258 140 300 165 273 165 -5 0 -46 -16 -93 -36z"/>
<path d="M7664 7171 c-116 -58 -299 -148 -407 -200 -108 -52 -197 -95 -197
-97 0 -4 195 -403 424 -868 124 -252 226 -463 226 -467 0 -5 -115 -9 -255 -9
l-255 0 0 -65 0 -65 1015 0 1015 0 0 65 0 65 -250 0 -250 0 -44 93 c-24 50
-115 236 -201 412 -86 176 -254 520 -372 765 -119 245 -221 452 -227 461 -10
14 -37 3 -222 -90z"/>
<path d="M5875 6360 c-52 -22 -97 -48 -106 -61 -9 -13 -58 -96 -109 -184 -199
-345 -286 -449 -437 -525 -85 -43 -143 -52 -393 -59 l-225 -6 -3 -62 -3 -63
841 0 840 0 0 64 0 64 -238 4 c-232 3 -239 4 -287 29 -93 47 -117 122 -74 231
22 57 183 381 255 514 24 45 44 84 44 88 0 10 -10 6 -105 -34z"/>
<path d="M4118 5728 c-49 -16 -88 -34 -88 -40 0 -22 84 -268 91 -268 5 0 13
17 18 38 6 20 31 97 55 170 51 152 57 145 -76 100z"/>
<path d="M2918 4375 c-5 -5 217 -565 235 -593 13 -19 85 -15 96 6 12 22 222
542 228 565 5 15 -2 17 -45 17 -39 0 -54 -4 -61 -18 -5 -10 -42 -108 -81 -217
-39 -110 -74 -208 -78 -219 -6 -14 -16 4 -41 70 -19 49 -61 158 -93 242 l-60
152 -47 0 c-26 0 -50 -2 -53 -5z"/>
<path d="M3837 4374 c-4 -4 -7 -25 -7 -46 l0 -38 45 0 44 0 3 -205 c2 -113 2
-210 0 -215 -2 -6 -24 -10 -48 -10 l-44 0 0 -45 0 -46 143 3 142 3 0 40 0 40
-47 3 -48 3 0 215 0 214 51 0 50 0 -3 43 -3 42 -136 3 c-74 1 -138 -1 -142 -4z"/>
<path d="M4609 4360 c-131 -69 -131 -234 0 -299 20 -10 61 -24 91 -31 77 -18
109 -37 124 -72 18 -41 10 -66 -28 -89 -63 -39 -160 -18 -219 46 l-33 35 -34
-35 -34 -35 39 -40 c51 -53 112 -75 200 -74 110 1 180 46 206 134 14 46 5 99
-22 134 -22 28 -124 80 -179 91 -89 18 -132 63 -111 118 29 77 166 73 232 -6
l18 -22 32 32 32 31 -21 30 c-12 16 -42 39 -67 51 -60 28 -174 29 -226 1z"/>
<path d="M5477 4343 c-23 -53 -208 -534 -215 -556 -4 -16 1 -18 43 -15 l48 3
26 70 27 70 128 0 129 0 26 -70 27 -70 48 -3 c46 -3 48 -2 43 20 -5 22 -24 73
-152 403 -76 197 -68 185 -119 185 -40 0 -44 -2 -59 -37z m102 -202 c23 -63
41 -118 41 -123 0 -4 -41 -8 -90 -8 -83 0 -90 1 -82 18 5 9 24 60 41 112 18
52 34 101 37 109 7 20 9 16 53 -108z"/>
<path d="M6280 4364 c-79 -34 -117 -100 -105 -180 11 -78 72 -128 185 -154 68
-15 127 -52 132 -82 6 -35 -18 -75 -53 -87 -73 -25 -141 -7 -199 53 l-36 36
-34 -35 -34 -35 34 -35 c126 -130 365 -99 410 52 33 109 -33 185 -199 228 -77
20 -97 32 -111 65 -23 56 29 110 105 110 44 0 69 -12 113 -53 l32 -31 32 32
32 32 -20 27 c-36 48 -98 73 -178 73 -41 -1 -86 -7 -106 -16z"/>
<path d="M7650 4371 c-84 -26 -160 -97 -191 -179 -17 -47 -20 -73 -17 -143 3
-72 9 -94 34 -140 66 -116 191 -169 321 -135 35 8 81 27 103 41 l41 26 -22 37
c-12 20 -24 39 -26 41 -1 2 -11 -3 -21 -12 -52 -48 -157 -60 -228 -28 -67 31
-114 111 -114 196 0 114 97 215 208 215 21 0 94 -34 134 -62 14 -10 22 -8 43
12 32 30 32 45 -2 75 -60 53 -186 79 -263 56z"/>
<path d="M8475 4367 c-59 -23 -103 -58 -138 -110 -92 -136 -67 -331 54 -427
62 -49 108 -64 189 -64 113 1 204 56 258 159 24 45 27 61 27 150 0 92 -2 104
-30 154 -34 62 -108 125 -163 141 -49 13 -159 12 -197 -3z m206 -105 c74 -48
114 -157 90 -248 -26 -98 -96 -154 -194 -154 -125 0 -197 78 -197 215 0 77 8
101 52 150 42 48 79 64 149 65 44 0 64 -6 100 -28z"/>
<path d="M9260 4075 l0 -305 45 0 45 0 -1 153 c0 83 -3 183 -8 220 -4 38 -4
70 -1 72 5 3 172 -210 305 -391 39 -52 41 -54 83 -52 l43 3 0 285 c0 157 -1
291 -1 298 0 8 -16 12 -46 12 l-46 0 4 -225 c1 -124 2 -225 1 -225 -1 0 -79
104 -173 230 l-172 230 -39 0 -39 0 0 -305z"/>
<path d="M4053 3466 c-182 -42 -383 -221 -492 -440 -138 -278 -157 -573 -57
-879 60 -182 130 -299 248 -414 130 -126 243 -176 403 -177 58 -1 121 5 150
13 326 91 577 497 579 936 0 138 -14 231 -56 365 -72 225 -193 400 -354 509
-127 85 -284 118 -421 87z m248 -71 c154 -108 239 -433 239 -910 0 -165 -21
-401 -44 -511 -42 -196 -129 -328 -241 -364 -22 -8 -68 -13 -102 -13 -77 1
-158 37 -203 91 -42 50 -105 183 -124 262 -45 189 -50 246 -50 550 0 262 2
309 22 422 37 205 93 345 173 427 63 65 107 82 206 79 72 -3 86 -6 124 -33z"/>
<path d="M7697 3463 c-3 -5 -32 -98 -65 -208 -33 -110 -117 -389 -187 -620
-117 -389 -161 -536 -220 -737 -47 -163 -88 -238 -139 -254 -11 -4 -43 -9 -71
-13 -41 -5 -50 -9 -50 -26 0 -19 8 -20 243 -23 212 -2 243 0 248 13 9 23 2 27
-78 35 -111 12 -148 32 -148 81 0 34 46 209 97 367 l36 112 245 -2 244 -3 84
-260 c46 -143 84 -268 84 -277 0 -16 -11 -18 -90 -18 -90 0 -90 0 -90 -25 l0
-25 335 0 335 1 0 25 c0 23 -3 24 -62 24 l-63 0 -43 133 c-23 72 -60 186 -81
252 -21 66 -76 235 -121 375 -45 140 -111 343 -145 450 -35 107 -95 292 -133
410 l-69 215 -46 3 c-25 2 -47 -1 -50 -5z m42 -921 c50 -156 91 -288 91 -293
0 -5 -92 -9 -226 -9 l-225 0 6 23 c4 12 18 56 30 97 13 41 55 181 95 310 39
129 76 248 83 265 11 29 11 29 33 -40 12 -39 63 -197 113 -353z"/>
<path d="M10796 3393 c-14 -43 -129 -424 -256 -848 -127 -423 -242 -794 -256
-823 -30 -62 -63 -82 -146 -90 -53 -4 -59 -7 -56 -26 3 -21 8 -21 246 -24 216
-2 243 -1 249 14 9 23 -10 31 -95 37 -85 6 -125 28 -130 70 -4 30 30 162 90
355 l41 132 246 -2 245 -3 39 -120 c88 -272 134 -425 129 -430 -3 -3 -42 -5
-88 -5 -74 0 -82 -2 -87 -21 -3 -11 0 -22 6 -25 7 -2 156 -3 332 -2 l320 3 3
22 c3 20 -1 22 -59 25 l-63 3 -97 300 c-54 165 -139 428 -189 585 -51 157
-112 346 -136 420 -24 74 -72 223 -107 330 l-63 195 -46 3 -46 3 -26 -78z m24
-723 c125 -387 130 -403 130 -417 0 -10 -52 -13 -226 -13 -211 0 -226 1 -219
18 3 9 19 60 35 112 16 52 53 176 83 275 71 233 98 317 102 313 2 -2 45 -132
95 -288z"/>
<path d="M990 3442 c-6 -2 -10 -12 -10 -22 0 -17 9 -20 76 -22 l75 -3 118
-250 c65 -137 164 -346 220 -464 55 -118 101 -220 101 -226 0 -14 -219 -432
-313 -599 -73 -129 -137 -199 -193 -215 -21 -6 -74 -11 -117 -11 -76 0 -78 -1
-75 -22 l3 -23 295 0 c288 0 295 0 295 20 0 18 -8 20 -94 25 -81 5 -95 8 -111
28 -28 34 -11 75 150 377 50 94 112 212 138 262 26 51 50 93 54 93 7 0 378
-744 378 -756 0 -2 -41 -4 -91 -4 -88 0 -90 -1 -87 -22 l3 -23 358 -3 357 -2
0 25 c0 25 -1 25 -88 25 l-88 0 -37 78 c-20 42 -119 246 -220 452 -101 206
-203 417 -227 468 l-44 93 25 47 c143 274 286 516 335 567 35 37 49 44 106 54
35 6 77 11 91 11 20 0 27 5 27 20 0 23 17 22 -305 23 -218 0 -220 0 -223 -21
-3 -21 0 -22 66 -22 38 0 83 -5 101 -11 60 -21 40 -87 -104 -349 -32 -58 -74
-134 -93 -170 -19 -36 -40 -71 -46 -78 -10 -10 -37 37 -126 220 -151 313 -180
375 -173 382 4 3 42 6 85 6 71 0 78 2 78 20 0 11 -3 20 -7 20 -41 3 -655 4
-663 2z"/>
<path d="M2560 3442 c-5 -2 -10 -12 -10 -22 0 -17 10 -20 88 -22 l87 -3 3
-882 2 -882 -87 -3 c-80 -3 -88 -5 -88 -23 0 -20 8 -20 343 -23 l342 -2 0 25
c0 25 0 25 -95 25 l-95 0 0 885 0 885 95 0 c88 0 95 1 95 20 0 12 -7 20 -17
21 -50 3 -654 4 -663 1z"/>
<path d="M5054 3441 c-2 -2 -4 -12 -4 -22 0 -16 12 -19 103 -21 l102 -3 6 -45
c12 -81 20 -1150 11 -1408 l-8 -253 -26 -25 c-22 -23 -36 -27 -112 -31 -81 -6
-87 -7 -84 -27 3 -21 6 -21 258 -21 247 0 255 1 255 20 0 16 -8 20 -45 22
-139 9 -174 29 -185 104 -3 24 -5 354 -3 733 3 734 5 764 47 634 11 -35 65
-189 119 -343 55 -154 125 -352 156 -440 31 -88 74 -209 96 -270 21 -60 62
-175 90 -255 68 -193 61 -178 67 -160 3 8 39 112 80 230 121 348 244 707 338
985 49 143 92 266 98 272 5 7 14 10 19 7 10 -6 10 -1103 0 -1356 l-5 -138 -74
0 c-71 0 -74 -1 -71 -22 l3 -23 315 0 315 0 3 23 c3 21 0 22 -72 22 l-76 0 2
882 3 883 73 3 c69 3 73 4 70 25 l-3 22 -225 -3 -225 -2 -18 -48 c-21 -57
-114 -325 -207 -597 -153 -446 -208 -600 -215 -594 -2 3 -70 193 -150 424 -80
231 -161 463 -180 515 -18 52 -48 138 -66 190 -18 52 -35 98 -38 102 -7 8
-529 16 -537 9z"/>
<path d="M8567 3442 c-9 -2 -17 -12 -17 -23 0 -17 8 -19 75 -19 l75 0 0 -885
0 -885 -76 0 c-72 0 -75 -1 -72 -22 l3 -23 310 0 c303 0 310 0 310 20 0 18 -8
20 -82 23 l-83 3 0 449 0 450 53 0 c124 -1 237 -31 300 -80 34 -27 75 -96 93
-156 7 -25 21 -121 29 -213 8 -91 20 -195 26 -231 19 -120 74 -207 158 -249
81 -42 264 -46 346 -9 30 13 30 45 0 40 -106 -17 -121 -15 -147 17 -35 40 -45
98 -58 319 -16 261 -46 355 -147 463 -27 29 -68 58 -113 78 -38 18 -70 39 -70
46 0 8 23 20 53 29 80 24 176 85 223 143 64 78 87 148 88 268 1 113 -16 177
-69 260 -39 62 -78 95 -149 129 -107 51 -148 55 -612 58 -237 2 -438 2 -447 0z
m703 -68 c155 -45 231 -152 247 -346 13 -169 -44 -303 -164 -387 -53 -37 -141
-61 -245 -68 l-98 -6 0 418 0 418 103 -6 c56 -4 127 -14 157 -23z"/>
</g>
</svg>
