<?xml version="1.0" standalone="no"?>
<!DOCTYPE svg PUBLIC "-//W3C//DTD SVG 20010904//EN"
 "http://www.w3.org/TR/2001/REC-SVG-20010904/DTD/svg10.dtd">
<svg version="1.0" xmlns="http://www.w3.org/2000/svg"
 width="408.000000pt" height="612.000000pt" viewBox="0 0 408.000000 612.000000"
 preserveAspectRatio="xMidYMid meet">

<g transform="translate(0.000000,612.000000) scale(0.100000,-0.100000)"
fill="#000000" stroke="none">
<path d="M3621 3658 c-18 -6 -36 -37 -26 -46 9 -9 80 24 78 36 -3 14 9 16 23
4 5 -4 27 -5 49 -2 l40 6 -45 7 c-49 7 -91 6 -119 -5z"/>
<path d="M3540 3620 c-26 -26 -26 -50 0 -43 21 6 34 19 43 46 9 24 -18 22 -43
-3z"/>
<path d="M3145 3440 c-8 -13 4 -32 16 -25 12 8 12 35 0 35 -6 0 -13 -4 -16
-10z"/>
<path d="M3865 3427 c-38 -10 -71 -23 -73 -28 -2 -5 -10 -9 -18 -9 -8 0 -14
-5 -14 -12 0 -6 -3 -8 -7 -5 -3 4 -17 0 -30 -8 -13 -9 -28 -13 -34 -10 -5 4
-8 2 -7 -3 2 -5 -37 -31 -87 -57 -49 -26 -92 -50 -95 -53 -3 -4 -14 -9 -25
-10 -11 -2 -23 -8 -26 -14 -3 -5 -9 -9 -12 -9 -14 1 -106 -46 -101 -52 3 -3
-4 -3 -15 0 -14 4 -27 -1 -37 -13 -9 -11 -13 -13 -9 -6 8 16 -14 15 -45 -4
l-25 -15 27 4 c15 2 25 0 22 -4 -3 -5 -12 -9 -20 -9 -8 0 -14 -4 -14 -9 0 -5
-7 -12 -16 -15 -14 -5 -15 -4 -4 9 8 9 9 15 2 15 -6 0 -16 -8 -21 -17 -6 -10
-11 -14 -11 -10 0 5 -13 -1 -29 -12 -16 -12 -34 -21 -39 -21 -5 0 -12 -7 -16
-15 -3 -8 -23 -18 -45 -21 -23 -4 -38 -10 -35 -15 3 -5 1 -9 -5 -9 -5 0 -16
-6 -23 -13 -15 -14 -91 -52 -97 -48 -2 2 -8 -4 -13 -13 -13 -23 -26 -20 -31 7
l-4 22 -2 -22 c0 -13 -5 -23 -9 -23 -5 0 -37 -18 -71 -40 -34 -22 -60 -37 -58
-33 3 5 -5 8 -18 8 -22 0 -23 -1 -7 -19 16 -18 16 -18 -3 -7 -18 11 -32 6
-110 -42 -94 -58 -134 -73 -162 -63 -14 6 -10 14 23 49 22 23 59 66 82 95 l43
52 -29 0 c-17 0 -32 -6 -36 -15 -9 -25 -33 -17 -86 30 -49 44 -68 55 -55 35 3
-6 -1 -13 -9 -16 -9 -3 -16 -13 -16 -21 0 -11 7 -13 24 -9 15 4 28 0 37 -10
11 -14 10 -18 -6 -31 -11 -7 -27 -12 -36 -10 -10 3 -16 -2 -15 -12 1 -10 -5
-15 -18 -13 -11 2 -15 -1 -11 -7 5 -9 -18 -16 -28 -8 -2 1 -11 -6 -21 -15 -10
-10 -23 -18 -29 -18 -7 0 -6 4 3 10 10 7 11 10 2 10 -7 0 -15 -7 -18 -15 -4
-8 -9 -13 -13 -11 -3 2 -31 0 -61 -5 -30 -5 -61 -10 -67 -11 -7 -1 -13 -5 -13
-9 0 -4 -8 -6 -17 -5 -10 1 -28 21 -39 44 -12 23 -24 39 -27 36 -2 -3 -7 2
-10 10 -4 9 -1 18 5 22 7 5 8 2 3 -6 -6 -9 -4 -11 4 -6 7 5 10 14 7 22 -3 8 7
23 24 36 16 11 27 25 24 30 -5 7 10 12 29 9 5 -1 6 3 2 8 -4 7 -15 6 -31 -1
-18 -8 -21 -14 -12 -20 8 -5 3 -7 -14 -5 -37 4 -47 16 -20 24 12 3 22 9 22 13
0 5 -8 6 -18 3 -10 -2 -126 14 -258 37 -131 23 -290 50 -352 61 -62 10 -231
41 -375 68 -144 27 -280 52 -302 56 -22 4 -46 11 -53 17 -29 25 -193 -9 -192
-40 0 -4 85 -34 188 -66 103 -32 191 -62 195 -66 5 -4 -1 -16 -12 -27 -20 -19
-20 -19 54 -42 77 -25 85 -34 60 -67 -24 -32 -17 -34 32 -8 l47 25 158 -51
158 -51 -15 -29 c-22 -43 -19 -44 30 -16 l45 27 102 -31 c56 -16 106 -34 111
-39 6 -6 5 -23 -2 -43 -9 -26 -9 -30 1 -20 19 19 26 14 20 -14 -4 -20 -2 -25
7 -19 7 4 11 18 8 31 -2 14 0 27 5 30 18 11 31 -15 30 -56 l-2 -42 34 21 34
21 90 -56 c99 -60 114 -82 70 -101 -31 -13 -52 -55 -45 -91 3 -16 1 -20 -7
-13 -8 7 -22 5 -40 -4 -16 -8 -35 -15 -42 -15 -8 0 -14 -6 -14 -12 0 -17 -37
43 -42 68 -3 15 -5 13 -10 -8 -3 -15 -2 -25 3 -23 4 3 10 1 14 -5 3 -5 -1 -10
-9 -10 -9 0 -16 -5 -16 -11 0 -5 5 -7 10 -4 5 3 10 1 10 -5 0 -6 -8 -13 -17
-16 -34 -11 -98 -48 -106 -61 -4 -7 -17 -13 -27 -13 -10 0 -23 -6 -27 -14 -12
-22 -101 -58 -106 -43 -2 7 -9 2 -16 -11 -10 -19 -9 -22 6 -22 15 0 16 -2 3
-10 -11 -7 -19 -2 -33 20 -22 34 -33 40 -17 9 18 -33 0 -37 -25 -5 -18 22 -26
26 -40 18 -17 -9 -17 -11 3 -28 26 -22 28 -34 7 -34 -8 0 -15 4 -15 9 0 10
-30 24 -37 17 -2 -2 3 -11 12 -19 14 -14 13 -16 -4 -14 -11 0 -18 4 -15 8 2 4
-1 11 -7 15 -7 4 -9 3 -5 -4 3 -6 2 -13 -4 -17 -6 -4 -8 -11 -5 -16 4 -5 2 -9
-4 -9 -5 0 -12 4 -15 9 -7 11 -56 2 -56 -11 0 -5 5 -6 12 -2 7 4 8 3 4 -5 -4
-6 -12 -9 -17 -6 -5 4 -9 1 -9 -4 0 -6 -4 -11 -8 -11 -5 0 -9 7 -9 15 0 8 4
12 9 9 4 -3 8 0 8 6 0 7 -7 9 -17 5 -27 -10 -103 -24 -151 -28 -24 -2 -47 -9
-52 -16 -5 -9 -9 -10 -14 -2 -8 13 -51 5 -83 -15 -17 -11 -23 -11 -23 -3 0 7
-3 9 -7 6 -3 -4 -13 -1 -21 6 -13 10 -14 9 -8 -1 4 -7 1 -14 -7 -18 -17 -6
-157 -11 -157 -5 0 5 37 39 93 85 53 43 58 56 23 56 -14 0 -27 4 -31 10 -3 5
-11 7 -18 5 -7 -3 -32 -1 -57 4 -40 8 -41 9 -13 10 26 1 232 107 386 198 5 3
-19 21 -53 40 -69 38 -264 183 -356 263 -32 29 -76 64 -97 78 l-38 26 -65 -32
c-36 -18 -67 -38 -69 -45 -5 -10 69 -236 146 -449 21 -57 34 -68 88 -68 13 0
22 -3 18 -6 -7 -7 -142 8 -328 37 l-127 20 -47 -22 c-25 -12 -43 -25 -38 -29
4 -4 73 -29 153 -55 207 -68 290 -101 313 -126 16 -17 17 -23 6 -30 -8 -5 -20
-9 -26 -9 -7 0 -13 -7 -13 -15 0 -9 -9 -15 -25 -15 -38 0 -39 0 -57 -17 -17
-15 -18 -15 -19 3 0 11 -3 14 -6 6 -13 -32 3 -38 78 -31 41 4 106 10 144 14
39 3 85 8 103 10 25 4 56 -6 127 -40 l93 -44 46 15 c25 9 46 21 46 28 0 6 -11
28 -25 48 l-24 36 82 12 c246 35 456 95 657 187 30 14 91 41 135 60 108 46
125 55 125 64 0 5 6 6 14 3 26 -10 158 16 246 47 112 40 112 40 106 30 -3 -4
21 -16 53 -26 l59 -18 -13 -38 c-8 -22 -11 -39 -8 -39 3 0 26 11 50 25 46 28
47 27 56 -27 3 -19 0 -28 -9 -28 -28 0 -54 -39 -54 -79 0 -44 9 -54 69 -74 71
-25 108 4 99 79 -2 20 -12 33 -33 44 -16 8 -32 16 -34 17 -2 2 1 8 7 15 5 7
12 26 14 42 3 32 15 41 38 26 12 -8 13 -14 3 -41 -7 -18 -11 -35 -8 -37 2 -2
23 10 45 28 37 29 46 32 85 27 26 -4 47 -2 50 4 4 5 12 9 18 7 21 -3 99 25
104 38 2 7 -3 24 -12 38 -17 25 -16 26 6 36 23 9 23 9 -5 7 -24 -2 -30 3 -37
27 -9 34 -1 53 48 107 19 21 31 39 26 39 -5 0 -9 10 -8 22 1 12 -5 40 -13 60
-11 28 -23 41 -46 47 -17 5 -26 10 -19 10 7 1 10 8 7 16 -4 8 -2 15 2 16 49 4
98 25 89 38 -2 5 -26 -2 -52 -15 -59 -29 -76 -30 -44 -4 13 11 29 20 36 20 7
0 15 7 19 15 3 8 12 15 21 15 14 0 54 18 65 30 3 3 12 5 20 5 8 0 21 6 28 15
8 8 10 9 7 2 -6 -11 -3 -11 16 0 13 7 27 18 31 23 4 6 8 7 8 3 0 -7 314 149
353 175 14 10 21 7 40 -17 16 -20 28 -27 38 -21 11 6 12 5 2 -6 -16 -17 -17
-43 -1 -33 6 4 9 3 7 -2 -3 -5 -11 -22 -19 -37 -17 -35 -7 -53 38 -73 30 -12
34 -12 53 7 26 26 21 50 -14 67 -26 13 -49 43 -46 59 1 4 -1 16 -5 25 -5 11 1
28 18 51 14 19 26 39 26 44 0 6 14 16 30 23 17 7 30 15 30 19 0 3 15 12 33 20
17 8 44 24 59 35 58 46 72 56 79 56 15 0 142 127 138 137 -3 6 -29 3 -74 -10z
m-386 -296 c-2 -31 -6 -38 -18 -33 -28 10 -31 27 -8 45 20 16 20 17 2 11 -16
-5 -17 -4 -5 5 25 18 31 13 29 -28z m71 19 c0 -5 -2 -10 -4 -10 -3 0 -8 5 -11
10 -3 6 -1 10 4 10 6 0 11 -4 11 -10z m-42 -85 c-3 -3 -9 2 -12 12 -6 14 -5
15 5 6 7 -7 10 -15 7 -18z m-2563 -36 c37 -11 65 -22 63 -25 -3 -2 -24 3 -48
11 -23 8 -51 15 -61 15 -10 0 -21 5 -24 10 -8 13 -7 13 70 -11z m338 -94 c75
-21 135 -40 133 -43 -6 -5 -259 63 -291 79 l-20 9 20 -4 c11 -2 82 -21 158
-41z m2252 5 c0 -7 -6 -15 -12 -17 -8 -3 -13 4 -13 17 0 13 5 20 13 18 6 -3
12 -11 12 -18z m-1936 -86 c39 -9 71 -20 71 -24 0 -7 -159 26 -169 35 -8 9 27
5 98 -11z m809 -29 c-20 -14 -40 -25 -45 -25 -11 0 60 49 72 50 5 0 -7 -11
-27 -25z m436 -130 c-10 -8 -23 -15 -28 -15 -6 0 -1 7 10 15 10 8 23 15 28 15
6 0 1 -7 -10 -15z m-719 -45 c3 -5 1 -10 -4 -10 -6 0 -11 5 -11 10 0 6 2 10 4
10 3 0 8 -4 11 -10z m340 -198 c-2 -3 -12 -1 -22 2 -15 6 -15 9 -3 16 13 8 35
-8 25 -18z m-1130 -293 c11 -17 -1 -21 -15 -4 -8 9 -8 15 -2 15 6 0 14 -5 17
-11z m-18 -45 c-3 -3 -12 -4 -19 -1 -8 3 -5 6 6 6 11 1 17 -2 13 -5z m-327
-84 c0 -5 -2 -10 -4 -10 -3 0 -8 5 -11 10 -3 6 -1 10 4 10 6 0 11 -4 11 -10z
m-97 -57 c-7 -2 -19 -2 -25 0 -7 3 -2 5 12 5 14 0 19 -2 13 -5z m-46 -9 c-3
-3 -12 -4 -19 -1 -8 3 -5 6 6 6 11 1 17 -2 13 -5z m-80 -10 c-3 -3 -12 -4 -19
-1 -8 3 -5 6 6 6 11 1 17 -2 13 -5z"/>
<path d="M3090 3399 c0 -11 5 -17 10 -14 6 3 10 13 10 21 0 8 -4 14 -10 14 -5
0 -10 -9 -10 -21z"/>
<path d="M3035 3379 c-4 -6 -5 -13 -2 -16 7 -7 27 6 27 18 0 12 -17 12 -25 -2z"/>
<path d="M2975 3351 c-6 -11 9 -23 19 -14 9 9 7 23 -3 23 -6 0 -12 -4 -16 -9z"/>
<path d="M2925 3327 c-4 -10 -5 -21 -1 -24 10 -10 18 4 13 24 -4 17 -4 17 -12
0z"/>
<path d="M2866 3303 c-9 -9 -7 -33 3 -33 12 0 22 28 12 34 -5 3 -11 3 -15 -1z"/>
<path d="M2810 3259 c0 -11 5 -17 10 -14 6 3 10 13 10 21 0 8 -4 14 -10 14 -5
0 -10 -9 -10 -21z"/>
<path d="M2756 3243 c-9 -9 -7 -33 3 -33 12 0 22 28 12 34 -5 3 -11 3 -15 -1z"/>
<path d="M2697 3206 c-6 -16 2 -28 14 -20 12 7 11 34 0 34 -5 0 -11 -6 -14
-14z"/>
<path d="M2647 3184 c-4 -4 -7 -14 -7 -23 0 -11 3 -12 11 -4 6 6 10 16 7 23
-2 6 -7 8 -11 4z"/>
<path d="M3200 3176 c-10 -13 -9 -17 4 -22 22 -8 49 3 44 19 -7 18 -33 20 -48
3z"/>
<path d="M2590 3145 c0 -8 5 -15 10 -15 6 0 10 7 10 15 0 8 -4 15 -10 15 -5 0
-10 -7 -10 -15z"/>
<path d="M2537 3126 c-4 -10 -5 -21 -2 -24 9 -9 17 6 13 25 -3 17 -4 17 -11
-1z"/>
<path d="M2487 3104 c-4 -4 -7 -14 -7 -23 0 -11 3 -12 11 -4 6 6 10 16 7 23
-2 6 -7 8 -11 4z"/>
<path d="M2356 3078 c-22 -34 -4 -106 39 -155 33 -36 36 -37 49 -20 27 34 29
91 7 136 -32 61 -70 77 -95 39z"/>
<path d="M2078 2984 c-38 -20 -36 -28 2 -9 17 9 30 18 30 20 0 7 -1 6 -32 -11z"/>
<path d="M2510 2929 c0 -5 5 -7 10 -4 6 3 10 8 10 11 0 2 -4 4 -10 4 -5 0 -10
-5 -10 -11z"/>
<path d="M2177 2874 c-3 -4 -2 -16 4 -26 13 -24 33 -10 23 15 -6 18 -16 21
-27 11z"/>
<path d="M3200 2700 c-24 -24 -25 -58 -5 -108 33 -77 86 -106 105 -56 22 58
-4 145 -51 170 -26 13 -30 13 -49 -6z"/>
<path d="M3060 2655 c-14 -8 -20 -14 -14 -15 5 0 19 7 30 15 24 18 16 19 -16
0z"/>
<path d="M1565 2627 c-4 -10 -5 -21 -1 -24 10 -10 18 4 13 24 -4 17 -4 17 -12
0z"/>
<path d="M1510 2589 c0 -11 5 -17 10 -14 6 3 10 13 10 21 0 8 -4 14 -10 14 -5
0 -10 -9 -10 -21z"/>
<path d="M3160 2603 c0 -6 4 -23 9 -36 8 -21 6 -26 -12 -31 -20 -5 -20 -6 -3
-25 17 -18 16 -20 -6 -35 -12 -9 -29 -16 -38 -16 -16 -1 -60 -30 -44 -30 6 0
16 6 24 13 8 6 7 3 -3 -9 -15 -18 -15 -21 -1 -36 20 -20 48 -11 139 39 71 40
101 65 67 56 -16 -4 -33 6 -65 38 -24 24 -49 53 -55 64 -6 11 -12 15 -12 8z
m48 -96 c8 -10 6 -13 -9 -13 -19 0 -24 7 -12 19 8 9 9 9 21 -6z"/>
<path d="M1460 2565 c0 -8 5 -15 10 -15 6 0 10 7 10 15 0 8 -4 15 -10 15 -5 0
-10 -7 -10 -15z"/>
<path d="M1409 2560 c0 -3 -2 -13 -4 -22 -4 -20 10 -24 21 -7 3 6 1 16 -5 22
-6 6 -11 9 -12 7z"/>
<path d="M1355 2520 c-3 -5 -3 -15 1 -21 6 -11 23 6 24 24 0 10 -18 9 -25 -3z"/>
<path d="M1305 2497 c-4 -10 -5 -21 -1 -24 10 -10 18 4 13 24 -4 17 -4 17 -12
0z"/>
<path d="M3023 2482 c-8 -5 -8 -12 3 -27 11 -15 17 -16 26 -7 9 9 9 15 -2 27
-8 8 -20 11 -27 7z"/>
<path d="M3095 2480 c3 -5 10 -10 16 -10 5 0 9 5 9 10 0 6 -7 10 -16 10 -8 0
-12 -4 -9 -10z"/>
<path d="M1255 2467 c-4 -10 -5 -21 -1 -24 10 -10 18 4 13 24 -4 17 -4 17 -12
0z"/>
<path d="M1205 2447 c-4 -10 -5 -21 -1 -24 10 -10 18 4 13 24 -4 17 -4 17 -12
0z"/>
<path d="M1155 2417 c-4 -10 -5 -21 -1 -24 10 -10 18 4 13 24 -4 17 -4 17 -12
0z"/>
<path d="M1105 2387 c-4 -10 -5 -21 -1 -24 10 -10 18 4 13 24 -4 17 -4 17 -12
0z"/>
<path d="M976 2180 c-16 -10 -33 -17 -38 -14 -4 3 -8 -2 -8 -10 0 -9 2 -16 5
-16 8 0 85 50 85 55 0 9 -14 4 -44 -15z"/>
<path d="M1054 2166 c-4 -11 0 -24 9 -34 15 -14 17 -14 23 2 4 11 0 24 -9 34
-15 14 -17 14 -23 -2z"/>
</g>
</svg>
